<svg viewBox="0 0 512 512" xmlns="http://www.w3.org/2000/svg"><path d="m350.09375 161.070312 86.503906-86.5c-48.304687-48.089843-112.414062-74.570312-180.597656-74.570312v122.332031c36.699219 0 69.941406 14.796875 94.09375 38.738281zm0 0" fill="#00cef5"/><path d="m256 122.332031v-122.332031c-68.183594 0-132.292969 26.480469-180.597656 74.570312l86.503906 86.5c24.152344-23.941406 57.394531-38.738281 94.09375-38.738281zm0 0" fill="#00e8f2"/><path d="m389.65625 255.167969h122.332031c-.214843-68.070313-26.8125-132.03125-74.96875-180.1875-.136719-.136719-.28125-.273438-.421875-.410157l-86.503906 86.5c24.253906 24.039063 39.335938 57.304688 39.5625 94.097657zm0 0" fill="#ff4f19"/><path d="m256 389.667969v122.332031c68.378906 0 132.667969-26.628906 181.019531-74.980469.140625-.136719.273438-.28125.414063-.421875l-86.503906-86.503906c-24.222657 24.433594-57.808594 39.574219-94.929688 39.574219zm0 0" fill="#ff9f00"/><path d="m511.988281 255.167969h-122.332031c0 .277343.007812.554687.007812.832031 0 36.699219-14.792968 69.941406-38.734374 94.09375l86.5 86.503906c48.089843-48.304687 74.570312-112.414062 74.570312-180.597656 0-.277344-.007812-.554688-.011719-.832031zm0 0" fill="#4b5be6"/><path d="m161.070312 350.09375-86.5 86.503906c.136719.140625.269532.285156.410157.421875 48.351562 48.351563 112.640625 74.980469 181.019531 74.980469v-122.332031c-37.121094 0-70.707031-15.140625-94.929688-39.574219zm0 0" fill="#fec000"/><path d="m161.90625 161.070312-86.503906-86.5c-.140625.136719-.285156.269532-.421875.410157-48.15625 48.15625-74.753907 112.117187-74.9687502 180.1875h122.3320312c.226562-36.792969 15.308594-70.058594 39.5625-94.097657zm0 0" fill="#ff7a53"/><path d="m122.332031 256c0-.277344.011719-.554688.011719-.832031h-122.3320312c-.0039063.277343-.0117188.554687-.0117188.832031 0 68.183594 26.480469 132.292969 74.570312 180.597656l86.5-86.503906c-23.941406-24.152344-38.738281-57.394531-38.738281-94.09375zm0 0" fill="#7985eb"/></svg>