<svg viewBox="-16 0 511 512" xmlns="http://www.w3.org/2000/svg"><path d="m386.039062 512h-96.179687l-50.359375-115.601562-50.359375 115.601562h-96.179687l71.839843-164.921875h149.398438zm0 0" fill="#fec000"/><path d="m30.339844 31.316406h418.320312v277.011719h-418.320312zm0 0" fill="#00e8f2"/><path d="m239.5 31.316406h209.160156v277.011719h-209.160156zm0 0" fill="#00cef5"/><path d="m344.507812 117.511719-117.851562 90.597656 120.410156 100.21875h101.59375v-108.132813zm0 0" fill="#4b5be6"/><path d="m175.019531 117.511719-144.679687 107.523437v83.292969h373.941406zm0 0" fill="#7985eb"/><path d="m292.0625 112.410156c0 12.414063-10.0625 22.472656-22.472656 22.472656s-22.472656-10.058593-22.472656-22.472656c0-12.410156 10.0625-22.46875 22.472656-22.46875s22.472656 10.058594 22.472656 22.46875zm0 0" fill="#ff9f00"/><path d="m176.558594 0h125.882812v68h-125.882812zm0 0" fill="#ffdf48"/><path d="m386.039062 512h-96.179687l-50.359375-115.601562v-49.320313h74.699219zm0 0" fill="#ff9f00"/><path d="m239.5 0h62.941406v68h-62.941406zm0 0" fill="#ffcf00"/><path d="m.5 289.988281h478v87.089844h-478zm0 0" fill="#fff4ca"/><path d="m239.5 289.988281h239v87.089844h-239zm0 0" fill="#ffe1ba"/></svg>