<svg viewBox="0 0 512.00025 512" xmlns="http://www.w3.org/2000/svg"><path d="m63.945312 256.636719 61.976563-31.253907 13.511719 26.789063-61.980469 31.253906zm0 0" fill="#c8c6cd"/><path d="m228.117188 434.109375 31.253906-61.976563 26.789062 13.511719-31.253906 61.976563zm0 0" fill="#aeadb3"/><path d="m512 21.210938-35.28125 35.28125-21.210938-21.210938 35.28125-35.28125zm0 0" fill="#ff7a53"/><path d="m389.042969 114.9375-141.5625 280.726562 13.445312 6.738282c10.605469 5.316406 21.894531 7.832031 33.023438 7.832031 27.121093 0 53.277343-14.949219 66.226562-40.773437l124.03125-245.851563zm0 0" fill="#00cef5"/><path d="m387.917969 27.320312-245.820313 124.015626c-36.449218 18.277343-51.242187 62.8125-32.972656 99.265624l6.734375 13.445313 280.734375-141.5625zm0 0" fill="#00e8f2"/><path d="m312.050781 511.757812c-4.070312.160157-8.132812.238282-12.171875.238282-36.75.011718-72.703125-6.621094-107.066406-19.738282-39.492188-15.09375-74.804688-38.015624-104.925781-68.144531-30.128907-30.121093-53.050781-65.433593-68.140625-104.925781-14.5625-38.140625-21.132813-78.265625-19.503906-119.238281l29.972656 1.191406c-2.96875 75.113281 25.78125 148.65625 78.882812 201.761719 50.605469 50.601562 119.757813 79.09375 191.152344 79.09375 3.527344 0 7.070312-.070313 10.609375-.210938zm0 0" fill="#c8c6cd"/><path d="m466.113281 45.894531 35.28125-35.28125 10.601563 10.601563-35.28125 35.28125zm0 0" fill="#ff4f19"/><path d="m310.859375 481.785156 1.191406 29.972656c-4.070312.160157-8.132812.238282-12.171875.238282-36.75.011718-72.703125-6.621094-107.066406-19.738282-39.492188-15.09375-74.804688-38.015624-104.925781-68.144531l21.210937-21.210937c50.605469 50.601562 119.757813 79.09375 191.152344 79.09375 3.527344 0 7.070312-.070313 10.609375-.210938zm0 0" fill="#aeadb3"/><path d="m478.488281 130.226562c-12.941406 12.941407-30.152343 20.0625-48.453125 20.0625-18.25 0-35.421875-7.082031-48.351562-19.960937l-.101563-.101563c-12.9375-12.949218-20.070312-30.152343-20.070312-48.460937 0-18.300781 7.132812-35.503906 20.070312-48.453125 26.722657-26.710938 70.183594-26.710938 96.90625 0l.109375.109375c26.613282 26.730469 26.570313 70.125-.109375 96.804687zm0 0" fill="#fec000"/><path d="m478.488281 130.226562c-12.941406 12.941407-30.152343 20.0625-48.453125 20.0625-18.25 0-35.421875-7.082031-48.351562-19.960937l96.914062-96.90625c26.613282 26.730469 26.570313 70.125-.109375 96.804687zm0 0" fill="#ff9f00"/><path d="m444.867188 96.59375c-8.152344 8.152344-21.351563 8.191406-29.550782.113281l-.109375-.113281c-8.191406-8.1875-8.191406-21.460938 0-29.648438 8.1875-8.191406 21.46875-8.191406 29.660157 0 .039062.039063.070312.066407.097656.109376 8.09375 8.199218 8.050781 21.390624-.097656 29.539062zm0 0" fill="#fff4ca"/><path d="m444.867188 96.59375c-8.152344 8.152344-21.351563 8.191406-29.550782.113281l29.648438-29.652343c8.09375 8.199218 8.050781 21.390624-.097656 29.539062zm0 0" fill="#ffe1ba"/><path d="m420.664062 339.417969-21.21875 21.210937-248.074218-248.074218 21.210937-21.21875zm0 0" fill="#ff7a53"/><path d="m296.628906 215.378906 124.035156 124.039063-21.21875 21.210937-124.027343-124.027344zm0 0" fill="#ff4f19"/><path d="m326.03125 207.191406-57.34375 57.332032-21.210938-21.210938 57.332032-57.34375zm0 0" fill="#c8c6cd"/><path d="m258.085938 253.929688 57.335937-57.339844 10.601563 10.601562-57.335938 57.335938zm0 0" fill="#aeadb3"/></svg>