<?xml version="1.0" encoding="utf-8"?>
<!-- Generator: Adobe Illustrator 24.3.0, SVG Export Plug-In . SVG Version: 6.00 Build 0)  -->
<svg version="1.1" id="圖層_1" xmlns="http://www.w3.org/2000/svg" xmlns:xlink="http://www.w3.org/1999/xlink" x="0px" y="0px"
	 viewBox="0 0 480 480" style="enable-background:new 0 0 480 480;" xml:space="preserve">
<style type="text/css">
	.st0{fill:#A0DDF7;}
	.st1{fill:#12AAEB;}
	.st2{fill:#F6FCFE;}
	.st3{fill:#ECF8FD;}
	.st4{fill:#0E80B0;}
	.st5{fill:#71CCF3;}
</style>
<g>
	<path class="st0" d="M356.3,277.7L328,306l-22.5,22.5l-28.3,28.3l101.7,101.7c18.7,18.7,49.1,18.7,67.8,0l11.3-11.3
		c18.7-18.7,18.7-49.1,0-67.8L356.3,277.7z"/>
	<path class="st0" d="M305.5,328.5L328,306l0,0L305.5,328.5L305.5,328.5z"/>
	<path class="st0" d="M326.4,228.5c40.1,10.8,82.9-1.6,111.1-32.2c28.2-30.5,37.1-74.2,23.2-113.4l-60.2,60.2l-50.8-16.9l-16.9-50.8
		l60.2-60.2c-39.2-13.9-82.8-5-113.4,23.2c-30.6,28.2-42.9,71-32.2,111.1l-37.9,37.9l-22.5,22.5L22,374.7
		c-18.7,18.7-18.7,49.1,0,67.8l11.3,11.3c18.7,18.7,49.1,18.7,67.8,0L326.4,228.5z"/>
</g>
<path class="st1" d="M463.6,373.7L361.9,272c-3.1-3.1-8.2-3.1-11.3,0L328,294.7l-28.2-28.3l29.1-29.1c40.1,9,82-3.1,111.2-32.1
	c32.6-32.8,43.5-81.3,28.2-125c-0.9-2.6-3.1-4.5-5.8-5.1c-2.7-0.6-5.5,0.2-7.4,2.1L398.3,134L356,119.8l-14.1-42.3l56.7-56.7
	c1.9-1.9,2.7-4.7,2.1-7.4c-0.6-2.7-2.5-4.8-5.1-5.8c-41.2-14.7-87-5.8-119.7,23.2c-32.7,29-47,73.5-37.4,116.1L209.4,176L107.5,74.1
	l-3.2-34.4c-0.3-2.9-2-5.3-4.6-6.5L37.5,4.9c-3-1.4-6.6-0.7-8.9,1.6L6.1,29.1c-2.3,2.4-3,5.9-1.6,8.9l28.2,62.2
	c1.2,2.6,3.7,4.4,6.5,4.7l34.4,3.2l101.9,101.8L16.3,369c-21.8,21.9-21.8,57.2,0,79.1l11.3,11.3c21.9,21.8,57.2,21.8,79.1,0
	l159.2-159.1l28.3,28.2l-22.6,22.6c-3.1,3.1-3.1,8.2,0,11.3l101.7,101.7c21.9,21.8,57.2,21.8,79.1,0l11.3-11.3
	C485.5,431,485.5,395.5,463.6,373.7L463.6,373.7z M198.1,187.3l-11.2,11.2L82.9,94.7c-1.3-1.3-3.1-2.1-4.9-2.3l-32.7-3l-24-52.9
	L36,21.8l52.9,24l3,32.7c0.2,1.9,1,3.6,2.3,4.9 M95.4,448.1c-15.6,15.6-40.9,15.6-56.5,0l-11.3-11.3c-15.6-15.6-15.6-40.9,0-56.5
	L252.9,155c2-2,2.8-5,2.1-7.7c-9.3-35,0.4-72.3,25.4-98.5c25-26.2,61.9-37.5,97.3-29.8l-50.6,50.6c-2.1,2.1-2.9,5.3-1.9,8.2
	l16.9,50.8c0.8,2.4,2.7,4.3,5.1,5l50.8,16.9c2.9,1,6,0.2,8.2-1.9l50.6-50.6c7.8,35.4-3.4,72.3-29.7,97.4
	c-26.2,25.1-63.6,34.6-98.6,25.2c-2.8-0.8-5.7,0-7.7,2.1L95.4,448.1z M277.2,288.9l11.2-11.2l28.3,28.3l-11.3,11.3L277.2,288.9z
	 M452.3,441.5L441,452.8c-15.6,15.6-40.9,15.6-56.5,0l-96-96l67.8-67.8l96,96C467.9,400.6,467.9,425.9,452.3,441.5L452.3,441.5z"/>
<rect x="-332.7" y="89" class="st1" width="68.5" height="68.5"/>
<rect x="-332.7" y="359.5" class="st2" width="68.5" height="68.5"/>
<rect x="-332.7" y="226.6" class="st3" width="68.5" height="65.1"/>
<rect x="-332.7" y="-31.6" class="st4" width="68.5" height="68.5"/>
<rect x="-219.7" y="89" class="st5" width="68.5" height="68.5"/>
<rect x="-219.7" y="224.9" class="st0" width="68.5" height="68.5"/>
</svg>
