<svg viewBox="0 0 512 512" xmlns="http://www.w3.org/2000/svg"><path d="m512 256c0 68.378906-26.628906 132.671875-74.980469 181.019531-48.339843 48.339844-112.609375 74.96875-180.980469 74.980469h-.039062c-68.378906 0-132.671875-26.628906-181.019531-74.980469-48.351563-48.347656-74.980469-112.640625-74.980469-181.019531s26.628906-132.671875 74.980469-181.019531c48.347656-48.351563 112.640625-74.980469 181.019531-74.980469h.039062c68.371094.0117188 132.640626 26.640625 180.980469 74.980469 48.351563 48.347656 74.980469 112.640625 74.980469 181.019531zm0 0" fill="#fff4ca"/><path d="m512 256c0 68.378906-26.628906 132.671875-74.980469 181.019531-48.339843 48.339844-112.609375 74.96875-180.980469 74.980469v-512c68.371094.0117188 132.640626 26.640625 180.980469 74.980469 48.351563 48.347656 74.980469 112.640625 74.980469 181.019531zm0 0" fill="#ffe1ba"/><path d="m431.082031 187.386719c-24.09375-61.453125-79.613281-107.128907-146.78125-117.273438-9.230469-1.394531-18.679687-2.113281-28.300781-2.113281-59.335938 0-112.25 27.488281-146.707031 70.425781-25.832031 32.203125-41.292969 73.085938-41.292969 117.574219 0 24.441406 4.664062 47.792969 13.152344 69.214844 24.300781 61.328125 79.929687 106.832031 147.140625 116.757812 9.039062 1.335938 18.292969 2.027344 27.707031 2.027344 59.558594 0 112.644531-27.691406 147.089844-70.910156 25.605468-32.121094 40.910156-72.820313 40.910156-117.089844 0-24.210938-4.574219-47.351562-12.917969-68.613281zm-135.359375 136.710937-78.769531.414063-39.714844-68.644531 39.25-68.097657 78.785157-.140625 39.574218 68.078125zm0 0" fill="#84caff"/><path d="m284.300781 70.121094-28.261719 49.027344-39.550781 68.621093-39.25 68.101563-67.949219-117.441406c34.460938-42.941407 87.371094-70.429688 146.710938-70.429688h.039062c9.609376 0 19.039063.71875 28.261719 2.121094zm0 0" fill="#fec000"/><path d="m431.078125 187.390625-135.808594.238281-39.230469.070313-39.550781.070312 39.550781-68.621093 28.261719-49.027344c67.167969 10.140625 122.6875 55.808594 146.777344 117.269531zm0 0" fill="#7985eb"/><path d="m444 256c0 44.269531-15.304688 84.96875-40.910156 117.089844l-68.238282-117.382813-39.578124-68.078125 135.808593-.242187c8.34375 21.261719 12.917969 44.402343 12.917969 68.613281zm0 0" fill="#ff4f19"/><path d="m403.089844 373.089844c-34.429688 43.210937-87.511719 70.898437-147.050782 70.910156h-.039062c-9.410156 0-18.671875-.691406-27.710938-2.03125l27.75-48.507812 39.679688-69.359376 39.132812-68.390624zm0 0" fill="#00e8f2"/><path d="m295.71875 324.101562-39.679688 69.359376-27.75 48.507812c-67.210937-9.929688-122.839843-55.429688-147.140624-116.757812l135.800781-.699219 39.089843-.203125zm0 0" fill="#7985eb"/><path d="m216.953125 324.511719-135.800781.703125c-8.488282-21.421875-13.152344-44.773438-13.152344-69.214844 0-44.488281 15.460938-85.371094 41.292969-117.574219l67.945312 117.441407zm0 0" fill="#ff7a53"/><path d="m334.851562 255.710938 68.238282 117.378906c-34.429688 43.210937-87.511719 70.898437-147.050782 70.910156v-50.539062l39.679688-69.359376zm0 0" fill="#00cef5"/><path d="m295.269531 187.628906-39.230469.070313v-68.550781l28.261719-49.027344c67.167969 10.140625 122.6875 55.808594 146.777344 117.269531zm0 0" fill="#4b5be6"/><path d="m284.300781 70.121094-28.261719 49.027344v-51.148438c9.609376 0 19.039063.71875 28.261719 2.121094zm0 0" fill="#ff9f00"/><path d="m295.71875 324.101562-39.679688 69.359376v-69.152344zm0 0" fill="#4b5be6"/></svg>