<svg id="Capa_1" enable-background="new 0 0 512 512" height="512" viewBox="0 0 512 512" width="512" xmlns="http://www.w3.org/2000/svg"><g><g><path d="m192.805 20.949c-6.459 1.71-13.789 2.46-21.548 3.25-39.869 4.096-51.207 11.049-74.024 42.487-12.067 16.597-14.659 19.185-31.298 31.147-31.313 22.542-38.563 33.734-42.687 73.754-2.096 20.228-2.999 23.339-11.079 41.347-16.228 36.198-16.224 49.944 0 86.133 8.078 18.002 8.982 21.111 11.079 41.347 4.128 40.058 11.398 51.23 42.687 73.754 16.659 11.977 19.245 14.568 31.297 31.148 22.838 31.466 34.184 38.393 74.024 42.487 20.168 2.053 23.421 2.939 41.587 11.029 12.699 5.66 27.098 12.069 43.177 12.069l22.998-250.901-22.998-258.9c-24.768 0-45.293 15.113-63.215 19.849z" fill="#85c882"/></g><g><g><path d="m492.062 193.005c-4.866-18.239-2.003-43.42-14.299-64.565-12.268-21.051-35.334-30.811-49.036-44.457-13.785-13.726-23.527-36.617-44.677-48.826-21.194-12.221-46.598-9.387-64.815-14.209-17.927-4.737-38.437-19.848-63.215-19.848v509.8c24.768 0 45.294-15.113 63.215-19.848 18.204-4.819 43.624-1.99 64.815-14.209 21.149-12.208 30.893-35.1 44.676-48.826 13.702-13.646 36.768-23.406 49.036-44.457 12.298-21.148 9.433-46.323 14.299-64.565 4.748-17.776 19.939-38.311 19.939-62.995 0-24.679-15.193-45.227-19.938-62.995z" fill="#00baa0"/></g></g><path d="m256.02 73.094 16.999 177.906-16.999 187.906c-101.212 0-183.556-82.053-183.556-182.906s82.344-182.906 183.556-182.906z" fill="#f7f9fa"/><path d="m439.576 256c0 100.852-82.344 182.906-183.556 182.906v-365.812c101.212 0 183.556 82.054 183.556 182.906z" fill="#d1cff1"/><path d="m256.02 157.938c-3.88 0-7.609 1.14-10.769 3.16-3.15 2.02-5.75 4.93-7.379 8.45l-24.038 51.986-42.117-19.638c-6.22-2.9-13.399-2.43-19.188 1.27-5.8 3.69-9.259 9.989-9.259 16.859v75.644c0 11.029 8.979 19.998 19.998 19.998h92.753l28.909-74.746z" fill="#ffd944"/><path d="m359.512 203.164c-5.79-3.7-12.959-4.17-19.188-1.27 0 0 0 0-.01 0l-42.107 19.638-24.038-51.986c-3.25-7.049-10.379-11.609-18.149-11.609v157.728h92.753c11.019 0 19.998-8.969 19.998-19.998v-75.644c0-6.87-3.459-13.169-9.259-16.859z" fill="#ff9e22"/></g></svg>