<?xml version="1.0" encoding="utf-8"?>
<!-- Generator: Adobe Illustrator 24.3.0, SVG Export Plug-In . SVG Version: 6.00 Build 0)  -->
<svg version="1.1" id="圖層_1" xmlns="http://www.w3.org/2000/svg" xmlns:xlink="http://www.w3.org/1999/xlink" x="0px" y="0px"
	 viewBox="0 0 480 480" style="enable-background:new 0 0 480 480;" xml:space="preserve">
<style type="text/css">
	.st0{fill:#A0DDF7;}
	.st1{fill:#12AAEB;}
	.st2{fill:#F6FCFE;}
	.st3{fill:#ECF8FD;}
	.st4{fill:#0E80B0;}
	.st5{fill:#71CCF3;}
</style>
<g>
	<path class="st0" d="M40,8h232c17.7,0,32,14.3,32,32v16H8V40C8,22.3,22.3,8,40,8z"/>
	<path class="st0" d="M272,472H40c-17.7,0-32-14.3-32-32v-16h296v16C304,457.7,289.7,472,272,472z"/>
	<path class="st0" d="M424.4,180.9l25.7-25.8l-45.2-45.2l-25.8,25.7c-8.5-4.9-17.6-8.7-27.1-11.3V88h-64v36.3
		c-9.5,2.6-18.6,6.4-27.1,11.3l-25.8-25.7l-45.2,45.2l25.7,25.8c-4.9,8.5-8.7,17.6-11.3,27.1H168v64h36.3
		c2.6,9.5,6.4,18.6,11.3,27.1l-25.7,25.8l45.2,45.2l25.8-25.7c8.5,4.9,17.6,8.7,27.1,11.3V392h64v-36.3c9.5-2.6,18.6-6.4,27.1-11.3
		l25.8,25.7l45.2-45.2l-25.7-25.8c4.9-8.5,8.7-17.6,11.3-27.1H472v-64h-36.3C433.1,198.5,429.3,189.4,424.4,180.9z M320,304
		c-5.4,0-10.8-0.7-16-2c-28.3-7.3-48-32.8-48-62s19.7-54.7,48-62c5.2-1.3,10.6-2,16-2c35.3,0,64,28.7,64,64S355.3,304,320,304z"/>
</g>
<path class="st1" d="M472,200h-30.4c-2-6.1-4.5-12-7.4-17.7l21.5-21.5c3.1-3.1,3.1-8.2,0-11.3l-45.2-45.2c-3.1-3.1-8.2-3.1-11.3,0
	l-21.6,21.5c-5.7-2.9-11.6-5.4-17.7-7.4V88c0-4.4-3.6-8-8-8h-40V40c0-22.1-17.9-40-40-40H40C17.9,0,0,17.9,0,40v400
	c0,22.1,17.9,40,40,40h232c22.1,0,40-17.9,40-40v-40h40c4.4,0,8-3.6,8-8v-30.4c6.1-2,12-4.5,17.7-7.4l21.6,21.5
	c3.1,3.1,8.2,3.1,11.3,0l45.2-45.2c3.1-3.1,3.1-8.2,0-11.3l-21.5-21.6c2.9-5.7,5.3-11.6,7.3-17.7H472c4.4,0,8-3.6,8-8v-64
	C480,203.6,476.4,200,472,200z M40,16h232c13.3,0,24,10.7,24,24v8H16v-8C16,26.7,26.7,16,40,16z M272,464H40c-13.3,0-24-10.7-24-24
	v-8h280v8C296,453.3,285.3,464,272,464z M296,416H16V64h280v16h-8c-4.4,0-8,3.6-8,8v30.4c-6.1,2-12,4.5-17.7,7.4l-21.5-21.5
	c-3.1-3.1-8.2-3.1-11.3,0l-45.2,45.2c-3.1,3.1-3.1,8.2,0,11.3l21.5,21.6c-2.9,5.7-5.4,11.6-7.4,17.6H168c-4.4,0-8,3.6-8,8v64
	c0,4.4,3.6,8,8,8h30.4c2,6.1,4.5,12,7.4,17.7l-21.5,21.6c-3.1,3.1-3.1,8.2,0,11.3l45.2,45.2c3.1,3.1,8.2,3.1,11.3,0l21.6-21.5
	c5.7,2.9,11.6,5.3,17.6,7.3V392c0,4.4,3.6,8,8,8h8V416z M464,264h-28.3c-3.6,0-6.8,2.4-7.7,5.9c-2.5,8.8-6,17.4-10.5,25.3
	c-1.8,3.1-1.2,7.1,1.3,9.6l20.1,20.1l-33.9,33.9l-20.1-20.1c-2.5-2.5-6.5-3.1-9.6-1.3c-8,4.5-16.5,8.1-25.3,10.6
	c-3.5,0.9-5.9,4.1-5.9,7.7V384h-48v-28.3c0-3.6-2.4-6.8-5.9-7.7c-8.8-2.5-17.3-6-25.3-10.5c-3.1-1.8-7.1-1.2-9.6,1.3l-20.1,20
	l-33.9-33.9l20.1-20.1c2.5-2.5,3.1-6.5,1.3-9.6c-4.5-8-8.1-16.5-10.6-25.3c-1-3.5-4.1-5.9-7.7-5.9H176v-48h28.3
	c3.6,0,6.8-2.4,7.7-5.9c2.5-8.8,6-17.4,10.5-25.3c1.8-3.1,1.2-7.1-1.3-9.6l-20.1-20.1l33.9-33.9l20.1,20.1c2.5,2.5,6.5,3.1,9.6,1.3
	c8-4.5,16.5-8.1,25.3-10.6c3.5-0.9,5.9-4.1,5.9-7.7V96h48v28.3c0,3.6,2.4,6.8,5.9,7.7c8.8,2.5,17.3,6,25.3,10.5
	c3.1,1.8,7.1,1.2,9.6-1.3l20.1-20l33.9,33.9l-20.1,20.1c-2.5,2.5-3.1,6.5-1.3,9.6c4.5,8,8.1,16.5,10.6,25.3c1,3.5,4.1,5.9,7.7,5.9
	H464V264z"/>
<path class="st1" d="M320,168c-6.1,0-12.1,0.8-18,2.2c-31.8,8.2-54,36.9-54,69.8c0,2.1,0.1,4.1,0.3,6.1c2.6,30.5,24.1,56,53.7,63.6
	h0.1c5.9,1.5,11.9,2.2,17.9,2.2c39.8,0,72-32.2,72-72S359.8,168,320,168z M264.7,231.2c0.2-0.9,0.4-1.8,0.6-2.8
	c0.4-1.9,0.9-3.8,1.4-5.7c0.3-1.1,0.8-2.1,1.2-3.1c0.6-1.7,1.3-3.3,2.1-4.9c0.5-1,1.1-2,1.6-3c0.9-1.5,1.8-3,2.8-4.4
	c0.7-0.9,1.3-1.8,2-2.7c1.1-1.4,2.4-2.7,3.7-4c0.7-0.7,1.4-1.5,2.2-2.2c1.7-1.6,3.6-3,5.5-4.3c0.4-0.3,0.8-0.7,1.2-0.9
	c2.2-1.4,4.5-2.7,6.9-3.8v101.1c-2.4-1.1-4.7-2.4-7-3.8c-0.2-0.1-0.3-0.3-0.5-0.4c-2.2-1.5-4.3-3.1-6.2-4.9c-0.7-0.6-1.3-1.3-2-2
	c-1.3-1.4-2.6-2.7-3.8-4.2c-0.7-0.8-1.3-1.7-1.9-2.6c-1-1.4-2-2.9-2.9-4.5c-0.6-1-1.1-1.9-1.6-2.9c-0.8-1.6-1.5-3.2-2.2-4.9
	c-0.4-1-0.8-2-1.1-3.1c-0.6-1.9-1.1-3.8-1.5-5.7c-0.2-0.9-0.5-1.8-0.6-2.8c-0.5-2.9-0.7-5.9-0.7-8.8
	C264,237.1,264.3,234.1,264.7,231.2z M320,296c-2.7,0-5.4-0.2-8-0.6V184.6c2.6-0.4,5.3-0.6,8-0.6c30.9,0,56,25.1,56,56
	S350.9,296,320,296z"/>
<rect x="-332.7" y="89" class="st1" width="68.5" height="68.5"/>
<rect x="-332.7" y="359.5" class="st2" width="68.5" height="68.5"/>
<rect x="-332.7" y="226.6" class="st3" width="68.5" height="65.1"/>
<rect x="-332.7" y="-31.6" class="st4" width="68.5" height="68.5"/>
<rect x="-219.7" y="89" class="st5" width="68.5" height="68.5"/>
<rect x="-219.7" y="224.9" class="st0" width="68.5" height="68.5"/>
</svg>
