<svg viewBox="0 0 512 512" xmlns="http://www.w3.org/2000/svg"><path d="m217.917969 366.496094-37.816407 37.828125-21.21875 21.21875-71.367187 71.355469c-9.992187 10.003906-23.128906 14.996093-36.257813 14.996093-13.125 0-26.230468-4.980469-36.234374-14.964843l-.03125-.03125c-19.988282-19.988282-19.988282-52.523438 0-72.515626l128.25-128.25 10.617187 10.613282 26.871094 24.703125 15.519531 14.277343.449219-.449218 10.605469 10.613281zm0 0" fill="#fec000"/><path d="m217.917969 366.496094-37.816407 37.828125-21.21875 21.21875-71.367187 71.355469c-9.992187 10.003906-23.128906 14.996093-36.257813 14.996093-13.125 0-26.230468-4.980469-36.234374-14.964843l107.691406-107.550782 21.238281-21.203125 36.777344-36.726562 15.519531 14.277343.449219-.449218 10.605469 10.613281zm0 0" fill="#ff9f00"/><path d="m512 200.886719c0 53.683593-20.910156 104.160156-58.867188 142.117187-39.191406 39.1875-90.65625 58.777344-142.117187 58.777344-51.417969 0-102.820313-19.539062-141.988281-58.636719-.050782-.050781-.089844-.089843-.140625-.140625-37.960938-37.957031-58.859375-88.433594-58.859375-142.117187 0-53.6875 20.898437-104.152344 58.859375-142.117188 78.367187-78.359375 205.878906-78.359375 284.246093 0 .109376.109375.230469.230469.339844.339844 37.738282 37.929687 58.527344 88.25 58.527344 141.777344zm0 0" fill="#7985eb"/><path d="m180.101562 404.324219-21.21875 21.21875-72.527343-72.523438 21.222656-21.222656 36.375 36.378906zm0 0" fill="#ff7a53"/><path d="m180.101562 404.324219-21.21875 21.21875-36.167968-36.164063 21.238281-21.203125zm0 0" fill="#ff4f19"/><path d="m512 200.886719c0 53.683593-20.910156 104.160156-58.867188 142.117187-39.191406 39.1875-90.65625 58.777344-142.117187 58.777344-51.417969 0-102.820313-19.539062-141.988281-58.636719l284.445312-284.035156c37.738282 37.929687 58.527344 88.25 58.527344 141.777344zm0 0" fill="#4b5be6"/><path d="m450.902344 200.886719c0 37.367187-14.558594 72.492187-40.980469 98.917969-26.414063 26.421874-61.550781 40.976562-98.90625 40.976562-37.289063 0-72.355469-14.496094-98.75-40.816406-.058594-.050782-.109375-.101563-.167969-.160156-26.421875-26.425782-40.980468-61.550782-40.980468-98.917969 0-37.367188 14.558593-72.496094 40.980468-98.917969 54.535156-54.535156 143.289063-54.535156 197.824219 0 .109375.109375.210937.210938.308594.320312 26.234375 26.382813 40.671875 61.378907 40.671875 98.597657zm0 0" fill="#9cfdff"/><path d="m450.902344 200.886719c0 37.367187-14.558594 72.492187-40.980469 98.917969-26.414063 26.421874-61.550781 40.976562-98.90625 40.976562-37.289063 0-72.355469-14.496094-98.75-40.816406l197.964844-197.675782c26.234375 26.382813 40.671875 61.378907 40.671875 98.597657zm0 0" fill="#00f8fe"/></svg>