<svg viewBox="-43 0 511 512" xmlns="http://www.w3.org/2000/svg"><path d="m269.589844 0h129.269531v166h-129.269531zm0 0" fill="#ff4f19"/><path d="m269.589844 33h64.632812v30h-64.632812zm0 0" fill="#ffa187"/><path d="m269.589844 94.75h64.632812v30h-64.632812zm0 0" fill="#ffa187"/><path d="m244.859375 166v-83.992188l-74.46875-81.492187-74.46875 81.492187v83.992188zm0 0" fill="#00e8f2"/><path d="m170.390625.515625-74.46875 81.492187h148.9375zm0 0" fill="#fec000"/><path d="m155.390625 82.007812h30v83.992188h-30zm0 0" fill="#00abe9"/><path d="m425.410156 156.5v149.691406c0 57.289063-32.359375 107.167969-79.761718 132.320313v73.488281h-219.609376v-31.28125h-81.078124v-103.296875h-44.460938v-50.160156l66.691406-124.230469v-46.53125zm0 0" fill="#fdd1a3"/><path d="m425.410156 156.5v149.691406c0 57.289063-32.359375 107.167969-79.761718 132.320313v73.488281h-100.789063v-355.5zm0 0" fill="#ffbb85"/></svg>