<svg viewBox="0 1 512 511" xmlns="http://www.w3.org/2000/svg"><path d="m512 66.25v106.46875h-429.871094l-82.128906-43.546875v-19.363281l82.128906-43.558594zm0 0" fill="#00e8f2"/><path d="m277.808594 66.25h234.191406v106.46875h-234.191406zm0 0" fill="#00cef5"/><path d="m81.667969 66.503906-81.667969 43.304688v19.359375l81.667969 43.304687zm0 0" fill="#ffeb97"/><path d="m391.871094 68.878906v168.109375l-33.589844 68.8125v27.308594h-162.089844v-41.609375l-62.902344-76.539062v-42.242188l44.800782.0625v-124.011719c0-14.757812 11.960937-26.71875 26.71875-26.71875 14.761718 0 26.722656 11.960938 26.722656 26.71875v31.902344l.019531-.011719v-53.441406c0-7.378906 2.988281-14.058594 7.820313-18.890625 4.839844-4.839844 11.519531-7.828125 18.898437-7.828125 7.71875 0 14.671875 3.269531 19.539063 8.511719 4.460937 4.769531 7.179687 11.167969 7.179687 18.207031v21.550781c0-7.378906 2.992188-14.058593 7.820313-18.890625 4.839844-4.839844 11.519531-7.828125 18.902344-7.828125 14.757812 0 26.71875 11.960938 26.71875 26.71875v20.109375c0-14.75 11.960937-26.71875 26.71875-26.71875 14.761718 0 26.722656 11.96875 26.722656 26.71875zm0 0" fill="#fdd1a3"/><path d="m391.871094 68.878906v168.109375l-33.589844 68.8125v27.308594h-80.472656v-324.097656c4.460937 4.769531 7.179687 11.167969 7.179687 18.207031v21.550781c0-7.378906 2.992188-14.058593 7.820313-18.890625 4.839844-4.839844 11.519531-7.828125 18.902344-7.828125 14.757812 0 26.71875 11.960938 26.71875 26.71875v20.109375c0-14.75 11.960937-26.71875 26.71875-26.71875 14.761718 0 26.722656 11.96875 26.722656 26.71875zm0 0" fill="#ffbb85"/><path d="m159.089844 305.710938h237.429687v206.789062h-237.429687zm0 0" fill="#ff7a53"/><path d="m191.191406 341.058594h30v30h-30zm0 0" fill="#fec000"/><g fill="#ff4f19"><path d="m277.808594 305.710938h118.710937v206.789062h-118.710937zm0 0"/><path d="m436 66.25h30v106.46875h-30zm0 0"/></g></svg>