<svg viewBox="0 -39 512 512" xmlns="http://www.w3.org/2000/svg"><path d="m0 0h512v363.191406h-512zm0 0" fill="#9cfdff"/><path d="m256 0h256v363.191406h-256zm0 0" fill="#00f8fe"/><path d="m193.128906 333.191406h125.742188v100.808594h-125.742188zm0 0" fill="#8b8992"/><path d="m256 333.191406h62.871094v100.808594h-62.871094zm0 0" fill="#78777f"/><path d="m161.058594 404h189.882812v30h-189.882812zm0 0" fill="#c8c6cd"/><path d="m256 404h94.941406v30h-94.941406zm0 0" fill="#aeadb3"/><path d="m0 271.289062h512v91.902344h-512zm0 0" fill="#c8c6cd"/><path d="m256 271.289062h256v91.902344h-256zm0 0" fill="#aeadb3"/><path d="m450 222.390625v48.898437h-111c0-45.839843-37.160156-83-83-83s-83 37.160157-83 83h-111v-48.898437l36.03125-5.519531c2.207031-6.410156 4.820312-12.691406 7.796875-18.800782l-21.589844-29.378906 69.160157-69.160156 29.390624 21.589844c6.101563-2.992188 12.382813-5.589844 18.789063-7.800782l5.523437-36.03125h97.796876l5.523437 36.03125c6.40625 2.210938 12.6875 4.808594 18.789063 7.800782l29.390624-21.589844 69.160157 69.160156-21.589844 29.378906c2.976563 6.109376 5.589844 12.390626 7.796875 18.800782zm0 0" fill="#7985eb"/><path d="m450 222.390625v48.898437h-111c0-45.839843-37.160156-83-83-83v-111h48.898438l5.523437 36.03125c6.40625 2.210938 12.6875 4.808594 18.789063 7.800782l29.390624-21.589844 69.160157 69.160156-21.589844 29.378906c2.976563 6.109376 5.589844 12.390626 7.796875 18.800782zm0 0" fill="#4b5be6"/></svg>