<svg id="_x31_" height="512" viewBox="0 0 24 24" width="512" xmlns="http://www.w3.org/2000/svg"><path d="m9.5 24c-.668 0-1.296-.26-1.768-.732l-7-7c-.472-.472-.732-1.1-.732-1.768 0-.642.243-1.252.684-1.718l11.276-11.691c.655-.692 1.582-1.091 2.54-1.091h7c1.378 0 2.5 1.122 2.5 2.5v7c0 .957-.398 1.883-1.093 2.541l-11.685 11.272c-.47.444-1.08.687-1.722.687zm5-23c-.694 0-1.339.278-1.816.782l-11.277 11.691c-.261.276-.407.642-.407 1.027 0 .401.156.777.439 1.06l7 7c.555.556 1.521.569 2.091.029l11.684-11.27c.001-.001.002-.002.003-.003.505-.477.783-1.122.783-1.816v-7c0-.827-.673-1.5-1.5-1.5z"/><path d="m19 7c-1.103 0-2-.897-2-2s.897-2 2-2 2 .897 2 2-.897 2-2 2zm0-3c-.551 0-1 .449-1 1s.449 1 1 1 1-.449 1-1-.449-1-1-1z"/><path d="m15.399 13.697c-.128 0-.256-.049-.354-.146l-3.536-3.536c-.094-.094-.146-.221-.146-.354s.053-.26.146-.354l1.061-1.061c.754-.756 2.072-.756 2.828 0 .378.378.586.88.586 1.414 0 .535-.208 1.037-.586 1.414l-.707.708 1.061 1.061c.195.195.195.512 0 .707-.097.098-.225.147-.353.147zm-2.828-4.036 1.415 1.415.707-.708c.189-.189.293-.44.293-.707s-.104-.518-.293-.707c-.378-.378-1.036-.378-1.414 0z"/><path d="m10.096 19c-.081 0-.163-.02-.237-.06l-4.596-2.475c-.243-.131-.334-.435-.203-.678s.433-.334.678-.203l3.128 1.685-1.685-3.128c-.131-.243-.04-.546.203-.678.245-.13.547-.039.678.203l2.475 4.596c.104.195.069.435-.087.591-.096.097-.224.147-.354.147z"/><path d="m13.278 15.818c-.128 0-.256-.049-.354-.146l-3.536-3.535c-.195-.195-.195-.512 0-.707s.512-.195.707 0l3.536 3.535c.195.195.195.512 0 .707-.097.097-.225.146-.353.146z"/></svg>