<svg viewBox="0 -31 512 512" xmlns="http://www.w3.org/2000/svg"><path d="m431.691406 153.25v72h-30v-42h-130.691406v42h-30v-42h-130.660156v47.199219h-30v-77.199219h160.660156v-55.828125h30v55.828125zm0 0" fill="#00e8f2"/><path d="m431.691406 153.25v72h-30v-42h-130.691406v42h-14.980469v-127.828125h14.980469v55.828125zm0 0" fill="#00cef5"/><path d="m512 0v112.421875h-430.121094l-81.878906-46.800781v-18.820313l81.878906-46.800781zm0 0" fill="#ff7a53"/><path d="m256.019531 0h255.980469v112.421875h-255.980469zm0 0" fill="#ff4f19"/><path d="m447.101562 309.738281h-54.410156c-35.792968 0-64.902344 29.121094-64.902344 64.902344v74.507813h184.210938v-74.507813c0-35.78125-29.109375-64.902344-64.898438-64.902344zm0 0" fill="#7985eb"/><path d="m481.949219 268.300781c0 34.21875-27.839844 62.050781-62.058594 62.050781h-.011719c-34.207031-.011718-62.039062-27.832031-62.039062-62.050781 0-34.210937 27.832031-62.039062 62.039062-62.050781h.011719c34.21875 0 62.058594 27.839844 62.058594 62.050781zm0 0" fill="#fdd1a3"/><path d="m512 374.640625v74.507813h-92.121094v-139.410157h27.222656c35.789063 0 64.898438 29.121094 64.898438 64.902344zm0 0" fill="#4b5be6"/><path d="m481.949219 268.300781c0 34.21875-27.839844 62.050781-62.058594 62.050781h-.011719v-124.101562h.011719c34.21875 0 62.058594 27.839844 62.058594 62.050781zm0 0" fill="#ffbb85"/><path d="m119.621094 309.738281h-54.40625c-35.792969 0-64.902344 29.121094-64.902344 64.902344v74.507813h184.210938v-74.507813c0-35.78125-29.109376-64.902344-64.902344-64.902344zm0 0" fill="#7985eb"/><path d="m154.472656 268.300781c0 34.21875-27.839844 62.050781-62.058594 62.050781h-.011718c-34.210938-.011718-62.039063-27.832031-62.039063-62.050781 0-34.210937 27.828125-62.039062 62.039063-62.050781h.011718c34.21875 0 62.058594 27.839844 62.058594 62.050781zm0 0" fill="#fdd1a3"/><path d="m184.523438 374.640625v74.507813h-92.121094v-139.410157h27.21875c35.792968 0 64.902344 29.121094 64.902344 64.902344zm0 0" fill="#4b5be6"/><path d="m154.472656 268.300781c0 34.21875-27.839844 62.050781-62.058594 62.050781h-.011718v-124.101562h.011718c34.21875 0 62.058594 27.839844 62.058594 62.050781zm0 0" fill="#ffbb85"/><path d="m82 0h-.117188l-81.882812 46.796875v18.820313l81.882812 46.796874h.117188zm0 0" fill="#fec000"/><path d="m424.621094 0h30v112.414062h-30zm0 0" fill="#ff9f00"/><path d="m283.21875 309.738281h-54.410156c-35.789063 0-64.898438 29.121094-64.898438 64.902344v74.507813h184.210938v-74.507813c0-35.78125-29.109375-64.902344-64.902344-64.902344zm0 0" fill="#7985eb"/><path d="m318.070312 268.300781c0 34.21875-27.839843 62.050781-62.058593 62.050781h-.011719c-34.210938-.011718-62.039062-27.832031-62.039062-62.050781 0-34.210937 27.828124-62.039062 62.039062-62.050781h.011719c34.21875 0 62.058593 27.839844 62.058593 62.050781zm0 0" fill="#fdd1a3"/><path d="m348.121094 374.640625v74.507813h-92.121094v-139.410157h27.21875c35.792969 0 64.902344 29.121094 64.902344 64.902344zm0 0" fill="#4b5be6"/><path d="m318.070312 268.300781c0 34.21875-27.839843 62.050781-62.058593 62.050781h-.011719v-124.101562h.011719c34.21875 0 62.058593 27.839844 62.058593 62.050781zm0 0" fill="#ffbb85"/></svg>