<?xml version="1.0" encoding="utf-8"?>
<!-- Generator: Adobe Illustrator 24.3.0, SVG Export Plug-In . SVG Version: 6.00 Build 0)  -->
<svg version="1.1" id="圖層_1" xmlns="http://www.w3.org/2000/svg" xmlns:xlink="http://www.w3.org/1999/xlink" x="0px" y="0px"
	 viewBox="0 0 480 480" style="enable-background:new 0 0 480 480;" xml:space="preserve">
<style type="text/css">
	.st0{fill:#A0DDF7;}
	.st1{fill:#12AAEB;}
	.st2{fill:#F6FCFE;}
	.st3{fill:#ECF8FD;}
	.st4{fill:#0E80B0;}
	.st5{fill:#71CCF3;}
</style>
<g>
	<path class="st0" d="M8,344h464v16c0,17.7-14.3,32-32,32H40c-17.7,0-32-14.3-32-32V344z"/>
	<path class="st0" d="M256,40v120h120C376,93.7,322.3,40,256,40z"/>
	<path class="st0" d="M224,72c-66.3,0-120,53.7-120,120s53.7,120,120,120s120-53.7,120-120H224V72z"/>
</g>
<path class="st1" d="M440,0H40C17.9,0,0,17.9,0,40v320c0,22.1,17.9,40,40,40h148.2l-25.6,64H112c-4.4,0-8,3.6-8,8s3.6,8,8,8h256
	c4.4,0,8-3.6,8-8s-3.6-8-8-8h-50.6l-25.6-64H440c22.1,0,40-17.9,40-40V40C480,17.9,462.1,0,440,0z M40,16h400c13.3,0,24,10.7,24,24
	v296H16V40C16,26.7,26.7,16,40,16z M300.2,464H179.8l25.6-64h69.2L300.2,464z M440,384H40c-13.3,0-24-10.7-24-24v-8h448v8
	C464,373.3,453.3,384,440,384z"/>
<path class="st1" d="M224,320c70.7-0.1,127.9-57.3,128-128c0-4.4-3.6-8-8-8H232V72c0-4.4-3.6-8-8-8c-70.7,0-128,57.3-128,128
	S153.3,320,224,320z M216,80.4V192c0,4.4,3.6,8,8,8h111.6c-4.2,59.6-54.6,105.4-114.3,104c-59.7-1.4-107.8-49.5-109.3-109.3
	C110.6,135,156.4,84.6,216,80.4z"/>
<path class="st1" d="M256,168h120c4.4,0,8-3.6,8-8c-0.1-70.7-57.3-127.9-128-128c-4.4,0-8,3.6-8,8v120C248,164.4,251.6,168,256,168z
	 M264,48.3c55.5,4.1,99.7,48.2,103.7,103.7H264V48.3z"/>
<rect x="-332.7" y="89" class="st1" width="68.5" height="68.5"/>
<rect x="-332.7" y="359.5" class="st2" width="68.5" height="68.5"/>
<rect x="-332.7" y="226.6" class="st3" width="68.5" height="65.1"/>
<rect x="-332.7" y="-31.6" class="st4" width="68.5" height="68.5"/>
<rect x="-219.7" y="89" class="st5" width="68.5" height="68.5"/>
<rect x="-219.7" y="224.9" class="st0" width="68.5" height="68.5"/>
</svg>
