<svg viewBox="-1 0 511 512" xmlns="http://www.w3.org/2000/svg"><path d="m510.039062 355.886719-254.769531 156.113281-254.769531-156.113281 102.367188-62.742188 7.839843 12.792969h289.125l7.839844-12.792969zm0 0" fill="#fec000"/><path d="m510.039062 355.886719-254.769531 156.113281v-206.0625h144.5625l7.839844-12.792969zm0 0" fill="#ff9f00"/><path d="m510.039062 255.988281-254.769531 156.136719-254.769531-156.136719 102.367188-62.71875 7.839843 12.792969h289.125l7.839844-12.792969zm0 0" fill="#ffdf48"/><path d="m510.039062 255.988281-254.769531 156.136719v-206.0625h144.5625l7.839844-12.792969zm0 0" fill="#ffcf00"/><path d="m510.039062 156.125-254.769531 156.125-254.769531-156.125 254.769531-156.125zm0 0" fill="#fff5cb"/><path d="m510.039062 156.125-254.769531 156.125v-312.25zm0 0" fill="#ffeb97"/></svg>