<svg viewBox="1 0 511.99999 511" xmlns="http://www.w3.org/2000/svg"><path d="m512 115.367188-332.238281 332.238281-179.761719 64.78125 64.902344-179.65625 332.230468-332.230469zm0 0" fill="#00e8f2"/><path d="m512 115.367188-332.238281 332.238281-179.761719 64.78125 454.511719-454.507813zm0 0" fill="#00cef5"/><path d="m179.761719 447.605469-179.761719 64.78125 64.902344-179.65625 57.375 57.378906zm0 0" fill="#fff4ca"/><path d="m122.277344 390.109375 57.484375 57.496094-179.761719 64.78125zm0 0" fill="#ffe1ba"/><path d="m58.804688 491.199219-58.804688 21.1875 21.226562-58.769531zm0 0" fill="#ff7a53"/><path d="m305.296875 92.335938 91.832031-91.832032 114.867188 114.863282-91.832032 91.835937zm0 0" fill="#ff7a53"/><path d="m111.734375 379.566406 240.394531-240.394531 21.195313 21.195313-240.394531 240.394531zm0 0" fill="#7985eb"/><path d="m122.277344 390.105469 240.394531-240.394531 10.652344 10.65625-240.394531 240.394531zm0 0" fill="#4b5be6"/><g fill="#ff4f19"><path d="m58.804688 491.199219-58.804688 21.1875 39.996094-39.996094zm0 0"/><path d="m362.671875 149.710938 91.835937-91.832032 57.488282 57.488282-91.835938 91.835937zm0 0"/></g></svg>