<?xml version="1.0" encoding="utf-8"?>
<!-- Generator: Adobe Illustrator 24.3.0, SVG Export Plug-In . SVG Version: 6.00 Build 0)  -->
<svg version="1.1" id="圖層_1" xmlns="http://www.w3.org/2000/svg" xmlns:xlink="http://www.w3.org/1999/xlink" x="0px" y="0px"
	 viewBox="0 0 480 480" style="enable-background:new 0 0 480 480;" xml:space="preserve">
<style type="text/css">
	.st0{fill:#A0DDF7;}
	.st1{fill:#F6FCFE;}
	.st2{fill:#12AAEB;}
	.st3{fill:#ECF8FD;}
	.st4{fill:#0E80B0;}
	.st5{fill:#71CCF3;}
</style>
<path class="st0" d="M288,432v-31.6c0,0-96-0.4-96,0V432H288z"/>
<path class="st0" d="M288,338.5c-0.2-11.2,5.7-21.6,15.3-27.3c50.4-28.7,75.2-87.8,60.4-143.9S298.3,72.1,240.3,72
	c-58-0.1-108.9,38.8-123.9,94.8c-15,56,9.5,115.2,59.8,144.1c9.8,5.7,15.9,16.2,15.8,27.6V368h96V338.5z M170.7,218.7L216,264
	l90.5-90.5L216,264L170.7,218.7z M288,336l-96-0.2L288,336z"/>
<path class="st1" d="M288,400.4V368h-96v32.4C192,400,288,400.4,288,400.4z"/>
<path class="st1" d="M240,472c17.7,0,32-14.3,32-32v-8h-64v8C208,457.7,222.3,472,240,472z"/>
<g>
	<path class="st2" d="M240,48c-4.4,0-8-3.6-8-8V8c0-4.4,3.6-8,8-8s8,3.6,8,8v32C248,44.4,244.4,48,240,48z"/>
	<path class="st2" d="M160,69.4c-2.9,0-5.5-1.5-6.9-4l-16-27.7c-2.2-3.8-0.9-8.7,3-10.9c3.8-2.2,8.7-0.9,10.9,2.9l16,27.7
		c1.4,2.5,1.4,5.5,0,8C165.5,67.9,162.9,69.4,160,69.4z"/>
	<path class="st2" d="M101.4,128c-1.4,0-2.8-0.4-4-1.1l-27.7-16c-3.8-2.2-5.1-7.1-2.9-10.9c2.2-3.8,7.1-5.1,10.9-3l27.7,16
		c3.1,1.8,4.7,5.5,3.7,9S105.1,128,101.4,128z"/>
	<path class="st2" d="M80,208H48c-4.4,0-8-3.6-8-8s3.6-8,8-8h32c4.4,0,8,3.6,8,8S84.4,208,80,208z"/>
	<path class="st2" d="M73.7,304c-3.6,0-6.8-2.4-7.7-5.9s0.6-7.2,3.7-9l27.7-16c2.5-1.4,5.5-1.5,8,0c2.5,1.4,4,4.1,4,7
		c0,2.9-1.5,5.5-4,6.9l-27.7,16C76.5,303.6,75.1,304,73.7,304z"/>
	<path class="st2" d="M406.3,304c-1.4,0-2.8-0.4-4-1.1l-27.7-16c-2.5-1.4-4-4.1-4-6.9c0-2.9,1.5-5.5,4-7c2.5-1.4,5.6-1.4,8,0
		l27.7,16c3.1,1.8,4.7,5.5,3.7,9S409.9,304,406.3,304z"/>
	<path class="st2" d="M432,208h-32c-4.4,0-8-3.6-8-8s3.6-8,8-8h32c4.4,0,8,3.6,8,8S436.4,208,432,208z"/>
	<path class="st2" d="M378.6,128c-3.6,0-6.8-2.4-7.7-5.9s0.6-7.2,3.7-9l27.7-16c2.5-1.4,5.5-1.5,8,0c2.5,1.4,4,4.1,4,7
		c0,2.9-1.5,5.5-4,6.9l-27.7,16C381.4,127.6,380,128,378.6,128z"/>
	<path class="st2" d="M320,69.4c-2.9,0-5.5-1.5-6.9-4c-1.4-2.5-1.4-5.5,0-8l16-27.7c2.2-3.8,7.1-5.1,10.9-2.9
		c3.8,2.2,5.1,7.1,3,10.9l-16,27.7C325.5,67.9,322.9,69.4,320,69.4z"/>
	<path class="st2" d="M240,48c-4.4,0-8-3.6-8-8V8c0-4.4,3.6-8,8-8s8,3.6,8,8v32C248,44.4,244.4,48,240,48z"/>
	<path class="st2" d="M160,69.4c-2.9,0-5.5-1.5-6.9-4l-16-27.7c-2.2-3.8-0.9-8.7,3-10.9c3.8-2.2,8.7-0.9,10.9,2.9l16,27.7
		c1.4,2.5,1.4,5.5,0,8C165.5,67.9,162.9,69.4,160,69.4z"/>
	<path class="st2" d="M80,208H48c-4.4,0-8-3.6-8-8s3.6-8,8-8h32c4.4,0,8,3.6,8,8S84.4,208,80,208z"/>
	<path class="st2" d="M432,208h-32c-4.4,0-8-3.6-8-8s3.6-8,8-8h32c4.4,0,8,3.6,8,8S436.4,208,432,208z"/>
	<path class="st2" d="M246.9,64.2c-37.2-1.9-73.6,11.6-100.6,37.3S104,162.7,104,200c0.1,48.7,26.1,93.6,68.2,117.9
		c7.3,4.3,11.8,12.1,11.8,20.6V432c0,4.4,3.6,8,8,8h8c0,22.1,17.9,40,40,40s40-17.9,40-40h8c4.4,0,8-3.6,8-8v-93.5
		c-0.2-8.3,4.1-16.1,11.3-20.4c52.5-29.9,79-90.9,65-149.7S307.2,67.2,246.9,64.2z M280,344v16h-80v-16H280z M200,376h80v16h-80V376
		z M240,464c-13.3,0-24-10.7-24-24h48C264,453.3,253.3,464,240,464z M200,424v-16h80v16H200z M299.4,304.3
		c-8.9,5.2-15.4,13.7-18,23.7l-82.9-0.2c-2.8-10-9.3-18.6-18.3-23.8c-37.2-21.4-60.1-61.1-60.2-104c0-32.9,13.5-64.3,37.3-87
		c23.8-22.7,55.9-34.5,88.8-32.9c53.2,2.7,98.3,40.2,110.7,92.1S345.7,277.9,299.4,304.3z"/>
	<path class="st2" d="M216,272c-2.1,0-4.2-0.8-5.7-2.3l-45.3-45.3c-3-3.1-3-8.1,0.1-11.2s8.1-3.1,11.2-0.1l39.6,39.6l84.8-84.9
		c3.1-3.1,8.2-3.1,11.3,0s3.1,8.2,0,11.3l-90.5,90.5C220.2,271.2,218.1,272,216,272z"/>
</g>
<rect x="-332.7" y="89" class="st2" width="68.5" height="68.5"/>
<rect x="-332.7" y="359.5" class="st1" width="68.5" height="68.5"/>
<rect x="-332.7" y="226.6" class="st3" width="68.5" height="65.1"/>
<rect x="-332.7" y="-31.6" class="st4" width="68.5" height="68.5"/>
<rect x="-219.7" y="89" class="st5" width="68.5" height="68.5"/>
<rect x="-219.7" y="224.9" class="st0" width="68.5" height="68.5"/>
</svg>
