<svg viewBox="0 0 512 512" xmlns="http://www.w3.org/2000/svg"><path d="m129 35.75h41.976562v30h-41.976562zm0 0" fill="#c8c6cd"/><path d="m199.675781 35.75h41.976563v30h-41.976563zm0 0" fill="#c8c6cd"/><path d="m270.347656 35.75h41.980469v30h-41.980469zm0 0" fill="#aeadb3"/><path d="m341.023438 35.75h41.976562v30h-41.976562zm0 0" fill="#aeadb3"/><path d="m129 446.25h41.976562v30h-41.976562zm0 0" fill="#c8c6cd"/><path d="m199.675781 446.25h41.976563v30h-41.976563zm0 0" fill="#c8c6cd"/><g fill="#aeadb3"><path d="m270.347656 446.25h41.980469v30h-41.980469zm0 0"/><path d="m341.023438 446.25h41.976562v30h-41.976562zm0 0"/><path d="m446.25 129h30v41.976562h-30zm0 0"/><path d="m446.25 199.675781h30v41.976563h-30zm0 0"/><path d="m446.25 270.347656h30v41.976563h-30zm0 0"/><path d="m446.25 341.023438h30v41.976562h-30zm0 0"/></g><path d="m35.75 129h30v41.976562h-30zm0 0" fill="#c8c6cd"/><path d="m35.75 199.675781h30v41.976563h-30zm0 0" fill="#c8c6cd"/><path d="m35.75 270.347656h30v41.976563h-30zm0 0" fill="#c8c6cd"/><path d="m35.75 341.023438h30v41.976562h-30zm0 0" fill="#c8c6cd"/><path d="m0 0h101.5v101.5h-101.5zm0 0" fill="#00e8f2"/><path d="m0 410.5h101.5v101.5h-101.5zm0 0" fill="#00e8f2"/><path d="m410.5 0h101.5v101.5h-101.5zm0 0" fill="#00cef5"/><path d="m410.5 410.5h101.5v101.5h-101.5zm0 0" fill="#00cef5"/><path d="m387.988281 130.21875v55.992188h-30v-25.992188h-86.988281v191.78125h24.75v30h-79.5v-30h24.75v-191.78125h-86.988281v25.992188h-30v-55.992188zm0 0" fill="#ff7a53"/><path d="m387.988281 130.21875v55.992188h-30v-25.992188h-86.988281v191.78125h24.75v30h-39.75v-251.78125zm0 0" fill="#ff4f19"/></svg>