<?xml version="1.0" encoding="utf-8"?>
<!-- Generator: Adobe Illustrator 24.3.0, SVG Export Plug-In . SVG Version: 6.00 Build 0)  -->
<svg version="1.1" id="圖層_1" xmlns="http://www.w3.org/2000/svg" xmlns:xlink="http://www.w3.org/1999/xlink" x="0px" y="0px"
	 viewBox="0 0 480 480" style="enable-background:new 0 0 480 480;" xml:space="preserve">
<style type="text/css">
	.st0{fill:#A0DDF7;}
	.st1{fill:#12AAEB;}
	.st2{fill:#F6FCFE;}
	.st3{fill:#ECF8FD;}
	.st4{fill:#0E80B0;}
	.st5{fill:#71CCF3;}
</style>
<path class="st0" d="M88,472l112-112h192V80H8v280h80V472z"/>
<path class="st1" d="M472,0H88c-4.4,0-8,3.6-8,8v64H8c-4.4,0-8,3.6-8,8v280c0,4.4,3.6,8,8,8h72v104c0,3.2,1.9,6.2,4.9,7.4
	c1,0.4,2,0.6,3.1,0.6c2.1,0,4.2-0.8,5.7-2.3L203.3,368H392c4.4,0,8-3.6,8-8v-64h72c4.4,0,8-3.6,8-8V8C480,3.6,476.4,0,472,0z
	 M384,352H200c-2.1,0-4.2,0.8-5.7,2.3L96,452.7V360c0-4.4-3.6-8-8-8H16V88h368V352z M464,280h-64V80c0-4.4-3.6-8-8-8H96V16h368V280z
	"/>
<rect x="-332.7" y="89" class="st1" width="68.5" height="68.5"/>
<rect x="-332.7" y="359.5" class="st2" width="68.5" height="68.5"/>
<rect x="-332.7" y="226.6" class="st3" width="68.5" height="65.1"/>
<rect x="-332.7" y="-31.6" class="st4" width="68.5" height="68.5"/>
<rect x="-219.7" y="89" class="st5" width="68.5" height="68.5"/>
<rect x="-219.7" y="224.9" class="st0" width="68.5" height="68.5"/>
</svg>
