<?xml version="1.0" encoding="utf-8"?>
<!-- Generator: Adobe Illustrator 24.3.0, SVG Export Plug-In . SVG Version: 6.00 Build 0)  -->
<svg version="1.1" id="圖層_1" xmlns="http://www.w3.org/2000/svg" xmlns:xlink="http://www.w3.org/1999/xlink" x="0px" y="0px"
	 viewBox="0 0 480 480" style="enable-background:new 0 0 480 480;" xml:space="preserve">
<style type="text/css">
	.st0{fill:#A0DDF7;}
	.st1{fill:#9BC9FF;}
	.st2{fill:#12AAEB;}
	.st3{fill:#F6FCFE;}
	.st4{fill:#ECF8FD;}
	.st5{fill:#0E80B0;}
	.st6{fill:#71CCF3;}
</style>
<path class="st0" d="M472,8H8v80h464V8z M336,56c-4.4,0-8-3.6-8-8s3.6-8,8-8s8,3.6,8,8S340.4,56,336,56z M384,56c-4.4,0-8-3.6-8-8
	s3.6-8,8-8s8,3.6,8,8S388.4,56,384,56z M432,56c-4.4,0-8-3.6-8-8s3.6-8,8-8s8,3.6,8,8S436.4,56,432,56z"/>
<path class="st1" d="M392,48c0,4.4-3.6,8-8,8s-8-3.6-8-8s3.6-8,8-8S392,43.6,392,48z"/>
<path class="st1" d="M440,48c0,4.4-3.6,8-8,8s-8-3.6-8-8s3.6-8,8-8S440,43.6,440,48z"/>
<path class="st1" d="M344,48c0,4.4-3.6,8-8,8s-8-3.6-8-8s3.6-8,8-8S344,43.6,344,48z"/>
<g>
	<path class="st2" d="M472,0H8C3.6,0,0,3.6,0,8v464c0,4.4,3.6,8,8,8h464c4.4,0,8-3.6,8-8V8C480,3.6,476.4,0,472,0z M16,16h448v64H16
		V16z M464,464H16V96h448V464z"/>
	<path class="st2" d="M400,48c0,8.8-7.2,16-16,16s-16-7.2-16-16s7.2-16,16-16S400,39.2,400,48z"/>
	<path class="st2" d="M448,48c0,8.8-7.2,16-16,16s-16-7.2-16-16s7.2-16,16-16S448,39.2,448,48z"/>
	<path class="st2" d="M352,48c0,8.8-7.2,16-16,16s-16-7.2-16-16s7.2-16,16-16S352,39.2,352,48z"/>
	<path class="st2" d="M324.5,371.5c3.1,3.1,8.2,3.1,11.3,0l85.8-85.8c3.1-3.1,3.1-8.2,0-11.3l-85.8-85.8c-2-2.1-5-2.9-7.8-2.2
		c-2.8,0.7-5,2.9-5.7,5.7c-0.7,2.8,0.1,5.8,2.2,7.8l80.2,80.2l-80.2,80.2C321.4,363.3,321.4,368.4,324.5,371.5z"/>
	<path class="st2" d="M144.2,371.5c2,2.1,5,2.9,7.8,2.2c2.8-0.7,5-2.9,5.7-5.7c0.7-2.8-0.1-5.8-2.2-7.8L75.3,280l80.2-80.2
		c2.1-2,2.9-5,2.2-7.8c-0.7-2.8-2.9-5-5.7-5.7c-2.8-0.7-5.8,0.1-7.8,2.2l-85.8,85.8c-3.1,3.1-3.1,8.2,0,11.3L144.2,371.5z"/>
	<path class="st2" d="M208.7,426.8c0.7,0.2,1.4,0.3,2.1,0.3c3.6,0,6.8-2.4,7.7-5.9L293,143c1.1-4.3-1.4-8.7-5.7-9.8
		s-8.7,1.4-9.8,5.7L203,417C201.9,421.3,204.4,425.7,208.7,426.8z"/>
</g>
<rect x="-332.7" y="89" class="st2" width="68.5" height="68.5"/>
<rect x="-332.7" y="359.5" class="st3" width="68.5" height="68.5"/>
<rect x="-332.7" y="226.6" class="st4" width="68.5" height="65.1"/>
<rect x="-332.7" y="-31.6" class="st5" width="68.5" height="68.5"/>
<rect x="-219.7" y="89" class="st6" width="68.5" height="68.5"/>
<rect x="-219.7" y="224.9" class="st0" width="68.5" height="68.5"/>
</svg>
