<?xml version="1.0" encoding="utf-8"?>
<!-- Generator: Adobe Illustrator 24.3.0, SVG Export Plug-In . SVG Version: 6.00 Build 0)  -->
<svg version="1.1" id="圖層_1" xmlns="http://www.w3.org/2000/svg" xmlns:xlink="http://www.w3.org/1999/xlink" x="0px" y="0px"
	 viewBox="0 0 483 483" style="enable-background:new 0 0 483 483;" xml:space="preserve">
<style type="text/css">
	.st0{fill:#A0DDF7;}
	.st1{fill:#12AAEB;}
	.st2{fill:#F6FCFE;}
	.st3{fill:#ECF8FD;}
	.st4{fill:#0E80B0;}
	.st5{fill:#71CCF3;}
</style>
<path class="st0" d="M376,141L248.8,268.2l-66.9,33l33-66.9L376,73.1V11H8v464h368V141z"/>
<path class="st1" d="M480.7,36.3L446.8,2.3c-3.1-3.1-8.2-3.1-11.3,0L384,53.8V11c0-4.4-3.6-8-8-8H8c-4.4,0-8,3.6-8,8v464
	c0,4.4,3.6,8,8,8h368c4.4,0,8-3.6,8-8V144.3l96.7-96.7C483.8,44.4,483.8,39.4,480.7,36.3z M368,467H16V19h352v50.8L209.2,228.6
	c-0.6,0.6-1.1,1.3-1.5,2.1l-33,66.9c-1.5,3.1-0.9,6.8,1.5,9.2c0.7,0.7,1.5,1.2,2.4,1.6c0.3,0.1,0.6,0.2,0.8,0.3
	c0.6,0.2,1.3,0.3,1.9,0.4c0.2,0,0.3,0.1,0.5,0.1s0.3-0.1,0.4-0.1c1.1,0,2.2-0.3,3.1-0.7l66.9-33c0.8-0.4,1.5-0.9,2.1-1.5L368,160.3
	V467z M244.1,261.6l-44.6,22l22-44.6L407.2,53.2l22.6,22.6L244.1,261.6z M441.1,64.5l-22.6-22.6l22.6-22.6l22.6,22.6L441.1,64.5z"/>
<rect x="-332.7" y="89" class="st1" width="68.5" height="68.5"/>
<rect x="-332.7" y="359.5" class="st2" width="68.5" height="68.5"/>
<rect x="-332.7" y="226.6" class="st3" width="68.5" height="65.1"/>
<rect x="-332.7" y="-31.6" class="st4" width="68.5" height="68.5"/>
<rect x="-219.7" y="89" class="st5" width="68.5" height="68.5"/>
<rect x="-219.7" y="224.9" class="st0" width="68.5" height="68.5"/>
</svg>
