<svg viewBox="0 0 512 512" xmlns="http://www.w3.org/2000/svg"><path d="m156.730469 186.867188c-.152344-3.019532-.230469-6.058594-.230469-9.117188 0-69.945312 40.617188-130.578125 99.5-159.570312-23.625-11.632813-50.183594-18.179688-78.25-18.179688-98.011719 0-177.75 79.738281-177.75 177.75 0 61.277344 31.167969 115.410156 78.480469 147.382812 2.921875-57.507812 33.296875-107.886718 78.25-138.265624zm0 0" fill="#ff7a53"/><path d="m512 177.75c0-98.011719-79.738281-177.75-177.75-177.75-28.066406 0-54.625 6.546875-78.25 18.179688 58.882812 28.992187 99.5 89.625 99.5 159.570312 0 3.058594-.078125 6.097656-.230469 9.117188 44.953125 30.378906 75.328125 80.757812 78.25 138.261718 47.3125-31.96875 78.480469-86.101562 78.480469-147.378906zm0 0" fill="#ffcf00"/><path d="m355.5 177.75c0 3.058594-.078125 6.101562-.230469 9.121094-28.371093-19.171875-62.53125-30.371094-99.269531-30.371094s-70.898438 11.199219-99.269531 30.371094c-.152344-3.019532-.230469-6.0625-.230469-9.121094 0-69.949219 40.621094-130.578125 99.5-159.570312 58.878906 28.992187 99.5 89.621093 99.5 159.570312zm0 0" fill="#fff4ca"/><path d="m433.75 334.25c0 98.011719-79.738281 177.75-177.75 177.75s-177.75-79.738281-177.75-177.75c0-3.058594.078125-6.101562.230469-9.121094 28.371093 19.171875 62.53125 30.371094 99.269531 30.371094 28.058594 0 54.621094-6.550781 78.25-18.179688 23.628906 11.628907 50.191406 18.179688 78.25 18.179688 36.738281 0 70.898438-11.199219 99.269531-30.371094.152344 3.019532.230469 6.0625.230469 9.121094zm0 0" fill="#7985eb"/><path d="m256 337.320312c-56.308594-27.726562-95.914062-84.382812-99.269531-150.453124-44.953125 30.378906-75.328125 80.757812-78.25 138.261718 28.367187 19.167969 62.535156 30.371094 99.269531 30.371094 28.066406 0 54.625-6.546875 78.25-18.179688zm0 0" fill="#ff4f19"/><path d="m355.269531 186.867188c-3.355469 66.070312-42.960937 122.726562-99.269531 150.453124 23.625 11.632813 50.183594 18.179688 78.25 18.179688 36.734375 0 70.902344-11.203125 99.269531-30.367188-2.921875-57.507812-33.296875-107.886718-78.25-138.265624zm0 0" fill="#ffdf48"/><path d="m355.269531 186.871094c-28.371093-19.171875-62.53125-30.371094-99.269531-30.371094v-138.320312c58.878906 28.992187 99.5 89.621093 99.5 159.570312 0 3.058594-.078125 6.101562-.230469 9.121094zm0 0" fill="#ffe1ba"/><path d="m433.75 334.25c0 98.011719-79.738281 177.75-177.75 177.75v-174.679688c23.628906 11.628907 50.191406 18.179688 78.25 18.179688 36.738281 0 70.898438-11.199219 99.269531-30.371094.152344 3.019532.230469 6.0625.230469 9.121094zm0 0" fill="#4b5be6"/><path d="m355.269531 186.871094c-3.359375 66.070312-42.960937 122.730468-99.269531 150.449218-56.308594-27.71875-95.910156-84.378906-99.269531-150.449218 28.371093-19.171875 62.53125-30.371094 99.269531-30.371094s70.898438 11.199219 99.269531 30.371094zm0 0" fill="#00e8f2"/><path d="m355.269531 186.871094c-3.359375 66.070312-42.960937 122.730468-99.269531 150.449218v-180.820312c36.738281 0 70.898438 11.199219 99.269531 30.371094zm0 0" fill="#00cef5"/></svg>