<svg viewBox="0 0 512 512" xmlns="http://www.w3.org/2000/svg"><path d="m397.210938 320.320312-28.152344 20.257813c-23.21875 16.722656-37.089844 43.792969-37.089844 72.410156v42.101563h-151.9375v-42.101563c0-28.617187-13.871094-55.6875-37.089844-72.410156l-28.152344-20.257813 131.441407-254.980468h19.539062zm0 0" fill="#ffdf48"/><path d="m397.210938 320.320312-28.152344 20.257813c-23.21875 16.722656-37.089844 43.792969-37.089844 72.410156v42.101563h-75.96875v-389.75h9.769531zm0 0" fill="#ffcf00"/><path d="m271 233.96875v-153.628906h-30v153.628906c-12.660156 5.722656-21.460938 18.453125-21.460938 33.242188 0 20.128906 16.320313 36.460937 36.460938 36.460937s36.460938-16.332031 36.460938-36.460937c0-14.789063-8.800782-27.519532-21.460938-33.242188zm0 0" fill="#fec000"/><path d="m292.460938 267.210938c0 20.128906-16.320313 36.460937-36.460938 36.460937v-223.332031h15v153.628906c12.660156 5.722656 21.460938 18.453125 21.460938 33.242188zm0 0" fill="#ff9f00"/><path d="m286.390625 30.390625h167.332031v30h-167.332031zm0 0" fill="#aeadb3"/><path d="m58.277344 30.390625h167.332031v30h-167.332031zm0 0" fill="#c8c6cd"/><path d="m136.011719 426.019531h239.976562v85.980469h-239.976562zm0 0" fill="#ff7a53"/><path d="m210.609375 0h90.78125v90.78125h-90.78125zm0 0" fill="#00e8f2"/><path d="m468.5 0c-23.984375 0-43.5 19.515625-43.5 43.5s19.515625 43.5 43.5 43.5 43.5-19.515625 43.5-43.5-19.515625-43.5-43.5-43.5zm0 0" fill="#00cef5"/><path d="m43.5 0c-23.984375 0-43.5 19.515625-43.5 43.5s19.515625 43.5 43.5 43.5 43.5-19.515625 43.5-43.5-19.515625-43.5-43.5-43.5zm0 0" fill="#00e8f2"/><path d="m256 0h45.390625v90.78125h-45.390625zm0 0" fill="#00cef5"/><path d="m256 426.019531h119.988281v85.980469h-119.988281zm0 0" fill="#ff4f19"/></svg>