<svg viewBox="0 0 512 512" xmlns="http://www.w3.org/2000/svg"><path d="m27.667969 138v129.582031c0 14.039063 11.378906 25.417969 25.417969 25.417969 14.035156 0 25.414062-11.378906 25.414062-25.417969v-36c0-10.261719 8.320312-18.582031 18.582031-18.582031 10.265625 0 18.582031 8.320312 18.582031 18.582031v7.417969c0 13.992188 11.34375 25.332031 25.335938 25.332031 13.988281 0 25.332031-11.339843 25.332031-25.332031v-101zm0 0" fill="#ff4f19"/><path d="m512 53.738281v102.871094c0 17.75-10.691406 33.371094-27.230469 39.8125l-.898437.347656-212.871094 52.558594v88.992187h-30v-112.492187l15-3.699219 218.621094-53.96875c4.507812-2.082031 7.378906-6.53125 7.378906-11.550781v-72.871094h-65v-30zm0 0" fill="#00e8f2"/><path d="m512 53.738281v102.871094c0 17.75-10.691406 33.371094-27.230469 39.8125l-.898437.347656-212.871094 52.558594v88.992187h-15v-116.191406l218.621094-53.96875c4.507812-2.082031 7.378906-6.53125 7.378906-11.550781v-72.871094h-65v-30zm0 0" fill="#00cef5"/><path d="m203.238281 323.320312h105.523438v188.679688h-105.523438zm0 0" fill="#00cef5"/><path d="m256 323.320312h52.761719v188.679688h-52.761719zm0 0" fill="#00abe9"/><path d="m440.671875 32.75v87.5c0 18.058594-14.691406 32.75-32.75 32.75h-375.171875c-18.058594 0-32.75-14.691406-32.75-32.75v-87.5c0-18.058594 14.691406-32.75 32.75-32.75h375.171875c18.058594 0 32.75 14.691406 32.75 32.75zm0 0" fill="#ffa187"/><path d="m203.238281 440.941406h105.523438v30h-105.523438zm0 0" fill="#fff4ca"/><path d="m256 440.941406h52.761719v30h-52.761719zm0 0" fill="#ffe1ba"/><path d="m440.671875 32.75v87.5c0 18.058594-14.691406 32.75-32.75 32.75h-151.921875v-153h151.921875c18.058594 0 32.75 14.691406 32.75 32.75zm0 0" fill="#ff7a53"/></svg>