<svg viewBox="0 -35 512 512" xmlns="http://www.w3.org/2000/svg"><path d="m0 0h512v442h-512zm0 0" fill="#fff4ca"/><path d="m258.308594 0h253.691406v442h-253.691406zm0 0" fill="#ffe1ba"/><path d="m0 0h512v112.75h-512zm0 0" fill="#00e8f2"/><path d="m258.308594 0h253.691406v112.75h-253.691406zm0 0" fill="#00cef5"/><path d="m344.582031 34h30v30h-30zm0 0" fill="#fec000"/><path d="m392.667969 34h30v30h-30zm0 0" fill="#fec000"/><path d="m440.25 34h30v30h-30zm0 0" fill="#fec000"/><path d="m60.625 183.3125h145.375v145.375h-145.375zm0 0" fill="#ff7a53"/><g fill="#7985eb"><path d="m238.328125 183.308594h206v30h-206zm0 0"/><path d="m238.328125 241h206v30h-206zm0 0"/><path d="m238.328125 298.691406h206v30h-206zm0 0"/><path d="m60.378906 356.378906h383.949219v30h-383.949219zm0 0"/></g><path d="m258.308594 183.308594h186.019531v30h-186.019531zm0 0" fill="#4b5be6"/><path d="m258.308594 241h186.019531v30h-186.019531zm0 0" fill="#4b5be6"/><path d="m258.308594 298.691406h186.019531v30h-186.019531zm0 0" fill="#4b5be6"/><path d="m258.308594 356.378906h186.019531v30h-186.019531zm0 0" fill="#4b5be6"/></svg>